# xmcd CD database file
#
# Track frame offsets:
#	150
#	21905
#	44471
#	59719
#	82542
#	104609
#	123305
#	140096
#	159053
#	176530
#
# Disc length: 2644 seconds
#
# Revision: 14
# Processed by: cddbd v1.5.1PL2 Copyright (c) Steve Scherf et al.
# Submitted via: CDex 1.51
#
DISCID=7f0a520a
DTITLE=angela - ソラノコエ
DYEAR=2003
DGENRE=JPop
TTITLE0=over the limits
TTITLE1=明日へのbrilliant road
TTITLE2=奇跡のring
TTITLE3=Pain
TTITLE4=dear my best friend
TTITLE5=綺麗な夜空
TTITLE6=幸せの温度
TTITLE7=カレイドスコープ
TTITLE8=How many?
TTITLE9=The end of the world
EXTD=YEAR: 2003
EXTT0=
EXTT1=
EXTT2=
EXTT3=
EXTT4=
EXTT5=
EXTT6=
EXTT7=
EXTT8=
EXTT9=
PLAYORDER=
